<?xml version="1.0" standalone="no"?><!DOCTYPE svg PUBLIC "-//W3C//DTD SVG 1.1//EN" "http://www.w3.org/Graphics/SVG/1.1/DTD/svg11.dtd"><svg t="1611663176510" class="icon" viewBox="0 0 1024 1024" version="1.1" xmlns="http://www.w3.org/2000/svg" p-id="3409" xmlns:xlink="http://www.w3.org/1999/xlink" width="22" height="22"><defs><style type="text/css"></style></defs><path d="M512 1022.912c281.664 0 510.912-229.248 510.912-510.912 0-281.728-229.248-510.912-510.912-510.912C230.208 1.088 1.024 230.272 1.024 512 1.024 793.664 230.208 1022.912 512 1022.912M512 50.496c254.464 0 461.568 206.976 461.568 461.504S766.464 973.568 512 973.568c-254.528 0-461.504-207.04-461.504-461.568S257.472 50.496 512 50.496M507.904 327.744c-14.912 0-26.944-12.032-26.944-27.008 0-14.848 12.032-26.944 26.944-26.944s27.008 12.032 27.008 26.944C534.912 315.648 522.816 327.744 507.904 327.744M507.904 406.912c13.632 0 24.704 11.008 24.704 24.64l0 300.736c0 13.568-11.072 24.704-24.704 24.704-13.568 0-24.64-11.136-24.64-24.704L483.264 431.616C483.264 417.984 494.336 406.912 507.904 406.912" p-id="3410" fill="#9ca2ab"></path></svg>